# xmcd CD database file
#
# Track frame offsets:
#	150
#	2382
#	11278
#	30477
#	75877
#	107092
#	156540
#	235455
#	244015
#	271260
#
# Disc length: 3644 seconds
#
# Revision: 0
# Processed by: cddbd v1.5.1PL2 Copyright (c) Steve Scherf et al.
# Submitted via: CDex 1.60beta1
#
DISCID=650e3a0a
DTITLE=CINEMA dub MONKS - Cinema,Duo
DYEAR=2005
DGENRE=Jazz
TTITLE0=序
TTITLE1=町
TTITLE2=町
TTITLE3=とめどない感情
TTITLE4=戻りたい家
TTITLE5=雲間と雲間
TTITLE6=渋茶2杯の会話
TTITLE7=渋茶2杯の会話
TTITLE8=ある夜、軒先
TTITLE9=結
EXTD=YEAR: 2005
EXTT0=
EXTT1=
EXTT2=
EXTT3=
EXTT4=
EXTT5=
EXTT6=
EXTT7=
EXTT8=
EXTT9=
PLAYORDER=
